<svg width="140" height="32" viewBox="0 0 140 32" fill="none" xmlns="http://www.w3.org/2000/svg">
  <path d="M20.8 10.4V20C20.8 21.3255 20.2732 22.5979 19.3355 23.5355C18.3979 24.4732 17.1255 25 15.8 25C14.4745 25 13.2021 24.4732 12.2645 23.5355C11.3268 22.5979 10.8 21.3255 10.8 20V10.4H6V20C6 22.6522 7.05357 25.1957 8.92893 27.0711C10.8043 28.9464 13.3478 30 16 30C18.6522 30 21.1957 28.9464 23.0711 27.0711C24.9464 25.1957 26 22.6522 26 20V10.4H20.8Z" fill="#0064FF"/>
  <path d="M3 2H29V7.2H3V2Z" fill="#0064FF"/>
  <path d="M39.968 24V10.24H36.128V7.68H46.88V10.24H43.04V24H39.968ZM52.3464 24.32C51.2424 24.32 50.2824 24.08 49.4664 23.6C48.6664 23.104 48.0424 22.424 47.5944 21.56C47.1624 20.68 46.9464 19.664 46.9464 18.512C46.9464 17.36 47.1624 16.352 47.5944 15.488C48.0424 14.608 48.6664 13.928 49.4664 13.448C50.2824 12.952 51.2424 12.704 52.3464 12.704C53.4504 12.704 54.4024 12.952 55.2024 13.448C56.0184 13.928 56.6424 14.608 57.0744 15.488C57.5224 16.352 57.7464 17.36 57.7464 18.512C57.7464 19.664 57.5224 20.68 57.0744 21.56C56.6424 22.424 56.0184 23.104 55.2024 23.6C54.4024 24.08 53.4504 24.32 52.3464 24.32ZM52.3464 21.968C52.9224 21.968 53.4024 21.84 53.7864 21.584C54.1704 21.312 54.4584 20.952 54.6504 20.504C54.8584 20.04 54.9624 19.52 54.9624 18.944V18.08C54.9624 17.504 54.8584 16.992 54.6504 16.544C54.4584 16.08 54.1704 15.72 53.7864 15.464C53.4024 15.192 52.9224 15.056 52.3464 15.056C51.7704 15.056 51.2904 15.192 50.9064 15.464C50.5224 15.72 50.2264 16.08 50.0184 16.544C49.8264 16.992 49.7304 17.504 49.7304 18.08V18.944C49.7304 19.52 49.8264 20.04 50.0184 20.504C50.2264 20.952 50.5224 21.312 50.9064 21.584C51.2904 21.84 51.7704 21.968 52.3464 21.968ZM62.9088 24.32C62.1408 24.32 61.4448 24.192 60.8208 23.936C60.2128 23.68 59.7088 23.328 59.3088 22.88L60.6528 21.176C60.9408 21.48 61.2688 21.72 61.6368 21.896C62.0208 22.072 62.4208 22.16 62.8368 22.16C63.2528 22.16 63.5728 22.08 63.7968 21.92C64.0368 21.744 64.1568 21.504 64.1568 21.2C64.1568 20.848 64.0048 20.592 63.7008 20.432C63.3968 20.256 62.8688 20.088 62.1168 19.928C61.5088 19.8 60.9888 19.656 60.5568 19.496C60.1408 19.336 59.7728 19.096 59.4528 18.776C59.1488 18.44 58.9968 17.984 58.9968 17.408C58.9968 16.816 59.1488 16.296 59.4528 15.848C59.7568 15.4 60.1808 15.056 60.7248 14.816C61.2688 14.576 61.8928 14.456 62.5968 14.456C63.2688 14.456 63.8768 14.568 64.4208 14.792C64.9648 15 65.4208 15.296 65.7888 15.68L64.4688 17.384C64.1968 17.096 63.8768 16.88 63.5088 16.736C63.1568 16.576 62.8048 16.496 62.4528 16.496C62.0688 16.496 61.7728 16.576 61.5648 16.736C61.3568 16.88 61.2528 17.08 61.2528 17.336C61.2528 17.544 61.3168 17.712 61.4448 17.84C61.5888 17.968 61.7728 18.072 61.9968 18.152C62.2208 18.232 62.5088 18.32 62.8608 18.416C63.4848 18.576 64.0128 18.744 64.4448 18.92C64.8768 19.08 65.2448 19.336 65.5488 19.688C65.8688 20.024 66.0288 20.488 66.0288 21.08C66.0288 22.152 65.6448 22.976 64.8768 23.552C64.1248 24.112 63.1248 24.32 62.9088 24.32ZM71.1952 24.32C70.4272 24.32 69.7312 24.192 69.1072 23.936C68.4992 23.68 67.9952 23.328 67.5952 22.88L68.9392 21.176C69.2272 21.48 69.5552 21.72 69.9232 21.896C70.3072 22.072 70.7072 22.16 71.1232 22.16C71.5392 22.16 71.8592 22.08 72.0832 21.92C72.3232 21.744 72.4432 21.504 72.4432 21.2C72.4432 20.848 72.2912 20.592 71.9872 20.432C71.6832 20.256 71.1552 20.088 70.4032 19.928C69.7952 19.8 69.2752 19.656 68.8432 19.496C68.4272 19.336 68.0592 19.096 67.7392 18.776C67.4352 18.44 67.2832 17.984 67.2832 17.408C67.2832 16.816 67.4352 16.296 67.7392 15.848C68.0432 15.4 68.4672 15.056 69.0112 14.816C69.5552 14.576 70.1792 14.456 70.8832 14.456C71.5552 14.456 72.1632 14.568 72.7072 14.792C73.2512 15 73.7072 15.296 74.0752 15.68L72.7552 17.384C72.4832 17.096 72.1632 16.88 71.7952 16.736C71.4432 16.576 71.0912 16.496 70.7392 16.496C70.3552 16.496 70.0592 16.576 69.8512 16.736C69.6432 16.88 69.5392 17.08 69.5392 17.336C69.5392 17.544 69.6032 17.712 69.7312 17.84C69.8752 17.968 70.0592 18.072 70.2832 18.152C70.5072 18.232 70.7952 18.32 71.1472 18.416C71.7712 18.576 72.2992 18.744 72.7312 18.92C73.1632 19.08 73.5312 19.336 73.8352 19.688C74.1552 20.024 74.3152 20.488 74.3152 21.08C74.3152 22.152 73.9312 22.976 73.1632 23.552C72.4112 24.112 71.4112 24.32 71.1952 24.32Z" fill="#1A1E27"/>
  <path d="M84.672 24V10.24H81.6V7.68H90.912V10.24H87.84V24H84.672ZM94.5464 24.32C93.8424 24.32 93.1864 24.208 92.5784 23.984C91.9864 23.76 91.5064 23.456 91.1384 23.072L92.2424 21.296C92.5624 21.616 92.9384 21.872 93.3704 22.064C93.8024 22.24 94.2344 22.328 94.6664 22.328C95.2424 22.328 95.6824 22.168 95.9864 21.848C96.3064 21.512 96.4664 21.024 96.4664 20.384V19.736C96.2104 20.072 95.8744 20.336 95.4584 20.528C95.0424 20.72 94.5704 20.816 94.0424 20.816C93.2264 20.816 92.5064 20.624 91.8824 20.24C91.2584 19.84 90.7704 19.288 90.4184 18.584C90.0664 17.88 89.8904 17.072 89.8904 16.16C89.8904 15.248 90.0664 14.44 90.4184 13.736C90.7704 13.032 91.2584 12.488 91.8824 12.104C92.5064 11.704 93.2264 11.504 94.0424 11.504C94.6024 11.504 95.0984 11.608 95.5304 11.816C95.9784 12.008 96.3384 12.28 96.6104 12.632V11.72H99.1064V20.312C99.1064 21.112 98.9304 21.8 98.5784 22.376C98.2424 22.936 97.7624 23.36 97.1384 23.648C96.5144 24.176 95.5864 24.32 94.5464 24.32ZM94.6904 18.464C95.1384 18.464 95.5224 18.36 95.8424 18.152C96.1624 17.928 96.4024 17.632 96.5624 17.264C96.7384 16.88 96.8264 16.456 96.8264 15.992V16.328C96.8264 15.864 96.7384 15.448 96.5624 15.08C96.4024 14.696 96.1624 14.4 95.8424 14.192C95.5224 13.968 95.1384 13.856 94.6904 13.856C94.2424 13.856 93.8584 13.968 93.5384 14.192C93.2184 14.4 92.9704 14.696 92.7944 15.08C92.6344 15.448 92.5544 15.864 92.5544 16.328V15.992C92.5544 16.456 92.6344 16.88 92.7944 17.264C92.9704 17.632 93.2184 17.928 93.5384 18.152C93.8584 18.36 94.2424 18.464 94.6904 18.464ZM103.542 26.696L106.758 19.328L103.206 11.72H106.038L108.174 16.952L110.31 11.72H113.118L106.758 26.696H103.542ZM114.325 20V11.72H116.845V12.8C117.117 12.432 117.477 12.144 117.925 11.936C118.373 11.712 118.877 11.6 119.437 11.6C119.981 11.6 120.469 11.712 120.901 11.936C121.333 12.144 121.701 12.432 122.005 12.8C122.277 12.448 122.629 12.16 123.061 11.936C123.509 11.712 124.005 11.6 124.549 11.6C125.541 11.6 126.333 11.896 126.925 12.488C127.533 13.08 127.837 13.92 127.837 15.008V20H125.317V15.536C125.317 14.896 125.189 14.424 124.933 14.12C124.677 13.8 124.317 13.64 123.853 13.64C123.373 13.64 122.997 13.808 122.725 14.144C122.469 14.464 122.341 14.936 122.341 15.56V20H119.821V15.536C119.821 14.896 119.693 14.424 119.437 14.12C119.181 13.8 118.821 13.64 118.357 13.64C117.877 13.64 117.501 13.808 117.229 14.144C116.973 14.464 116.845 14.936 116.845 15.56V20H114.325ZM134.611 20.32C133.651 20.32 132.827 20.112 132.139 19.696C131.467 19.264 130.955 18.672 130.603 17.92C130.251 17.152 130.075 16.28 130.075 15.304V14.816C130.075 13.84 130.251 12.976 130.603 12.224C130.955 11.456 131.467 10.864 132.139 10.448C132.827 10.016 133.651 9.8 134.611 9.8C135.571 9.8 136.387 10.016 137.059 10.448C137.747 10.864 138.267 11.456 138.619 12.224C138.971 12.976 139.147 13.84 139.147 14.816V15.616H132.715V15.928C132.715 16.568 132.899 17.08 133.267 17.464C133.651 17.848 134.179 18.04 134.851 18.04C135.347 18.04 135.755 17.944 136.075 17.752C136.395 17.56 136.643 17.296 136.819 16.96L138.907 18.208C138.555 18.88 138.035 19.408 137.347 19.792C136.659 20.176 135.763 20.32 134.611 20.32ZM132.715 13.88H136.507V13.568C136.507 12.928 136.331 12.424 135.979 12.056C135.627 11.672 135.131 11.48 134.491 11.48C133.851 11.48 133.355 11.672 133.003 12.056C132.667 12.424 132.499 12.928 132.499 13.568V13.88H132.715ZM140.875 20V11.72H143.395V12.8C143.667 12.432 144.027 12.144 144.475 11.936C144.923 11.712 145.427 11.6 145.987 11.6C146.979 11.6 147.771 11.896 148.363 12.488C148.971 13.08 149.275 13.92 149.275 15.008V20H146.755V15.536C146.755 14.896 146.627 14.424 146.371 14.12C146.115 13.8 145.755 13.64 145.291 13.64C144.811 13.64 144.435 13.808 144.163 14.144C143.907 14.464 143.779 14.936 143.779 15.56V20H140.875ZM154.318 20.32C153.566 20.32 152.958 20.192 152.494 19.936C152.03 19.664 151.686 19.296 151.462 18.832C151.254 18.352 151.15 17.808 151.15 17.2V13.88H150.022V11.72H151.15V9.32H153.67V11.72H155.518V13.88H153.67V16.76C153.67 17.24 153.774 17.6 153.982 17.84C154.206 18.08 154.542 18.2 154.99 18.2C155.182 18.2 155.358 18.176 155.518 18.128V20.168C155.23 20.264 154.838 20.32 154.342 20.32H154.318ZM159.722 20.32C159.162 20.32 158.626 20.248 158.114 20.104C157.618 19.944 157.194 19.728 156.842 19.456L157.754 17.68C158.058 17.904 158.402 18.08 158.786 18.208C159.17 18.336 159.554 18.4 159.938 18.4C160.29 18.4 160.554 18.344 160.73 18.232C160.922 18.104 161.018 17.936 161.018 17.728C161.018 17.488 160.898 17.32 160.658 17.224C160.418 17.112 160.002 17.008 159.41 16.912C158.914 16.832 158.49 16.736 158.138 16.624C157.802 16.496 157.506 16.296 157.25 16.024C157.01 15.736 156.89 15.344 156.89 14.848C156.89 14.336 157.026 13.896 157.298 13.528C157.57 13.144 157.954 12.856 158.45 12.664C158.946 12.456 159.514 12.352 160.154 12.352C160.714 12.352 161.218 12.432 161.666 12.592C162.13 12.736 162.522 12.952 162.842 13.24L161.93 15.016C161.69 14.808 161.41 14.648 161.09 14.536C160.786 14.408 160.474 14.344 160.154 14.344C159.818 14.344 159.562 14.408 159.386 14.536C159.21 14.648 159.122 14.808 159.122 15.016C159.122 15.192 159.186 15.328 159.314 15.424C159.458 15.52 159.634 15.592 159.842 15.64C160.05 15.688 160.33 15.744 160.682 15.808C161.178 15.904 161.594 16.008 161.93 16.12C162.282 16.232 162.578 16.424 162.818 16.696C163.074 16.952 163.202 17.32 163.202 17.8C163.202 18.616 162.898 19.24 162.29 19.672C161.698 20.104 160.858 20.32 159.77 20.32H159.722Z" fill="#4E5968"/>
</svg>
