<svg width="120" height="40" viewBox="0 0 120 40" fill="none" xmlns="http://www.w3.org/2000/svg">
  <path d="M20 5C11.7157 5 5 11.7157 5 20C5 28.2843 11.7157 35 20 35C28.2843 35 35 28.2843 35 20C35 11.7157 28.2843 5 20 5ZM20 8C26.6274 8 32 13.3726 32 20C32 26.6274 26.6274 32 20 32C13.3726 32 8 26.6274 8 20C8 13.3726 13.3726 8 20 8Z" fill="#00D4FF"/>
  <path d="M20 12C15.5817 12 12 15.5817 12 20C12 24.4183 15.5817 28 20 28C24.4183 28 28 24.4183 28 20C28 15.5817 24.4183 12 20 12ZM20 14.5C23.0376 14.5 25.5 16.9624 25.5 20C25.5 23.0376 23.0376 25.5 20 25.5C16.9624 25.5 14.5 23.0376 14.5 20C14.5 16.9624 16.9624 14.5 20 14.5Z" fill="#00D4FF"/>
  <path d="M45 16H50.5C52.7091 16 54.5 17.7909 54.5 20C54.5 22.2091 52.7091 24 50.5 24H47V28H45V16ZM47 22H50.5C51.6046 22 52.5 21.1046 52.5 20C52.5 18.8954 51.6046 18 50.5 18H47V22Z" fill="#1A1A1A"/>
  <path d="M57 16H59V28H57V16Z" fill="#1A1A1A"/>
  <path d="M62 19H64V28H62V19ZM63 16C63.5523 16 64 16.4477 64 17C64 17.5523 63.5523 18 63 18C62.4477 18 62 17.5523 62 17C62 16.4477 62.4477 16 63 16Z" fill="#1A1A1A"/>
  <path d="M71 19C72.6569 19 74 20.3431 74 22C74 22.3506 73.9398 22.6872 73.8293 23H68.1707C68.4301 24.1652 69.4696 25 70.6923 25C71.5308 25 72.2593 24.5439 72.6458 23.8649L74.3542 24.8649C73.5813 26.1761 72.1882 27 70.6923 27C68.3525 27 66.4615 25.2091 66.4615 23C66.4615 20.7909 68.3525 19 70.6923 19H71ZM68.1707 21H71.8293C71.5699 19.8348 70.5304 19 69.3077 19C68.0851 19 67.0455 19.8348 68.1707 21Z" fill="#1A1A1A"/>
  <path d="M77 19H79V28H77V19ZM78 16C78.5523 16 79 16.4477 79 17C79 17.5523 78.5523 18 78 18C77.4477 18 77 17.5523 77 17C77 16.4477 77.4477 16 78 16Z" fill="#1A1A1A"/>
  <path d="M85 19C87.2091 19 89 20.7909 89 23C89 25.2091 87.2091 27 85 27C82.7909 27 81 25.2091 81 23C81 20.7909 82.7909 19 85 19ZM85 21C83.8954 21 83 21.8954 83 23C83 24.1046 83.8954 25 85 25C86.1046 25 87 24.1046 87 23C87 21.8954 86.1046 21 85 21Z" fill="#1A1A1A"/>
</svg>
