<svg width="140" height="30" viewBox="0 0 140 30" fill="none" xmlns="http://www.w3.org/2000/svg">
  <path d="M20.1429 7.30435C17.4286 7.30435 14.9524 8.39131 13 10.087V0H8.14286V29.3043H13V17.6087C13 14.3478 15.5238 11.7391 18.7143 11.7391C21.9048 11.7391 24.4286 14.3478 24.4286 17.6087C24.4286 20.8696 21.9048 23.4783 18.7143 23.4783C17.1905 23.4783 15.8095 22.913 14.7143 22.0435V26.9565C16.0476 27.7391 17.619 28.2174 19.2857 28.2174C24.7143 28.2174 29.2857 23.4783 29.2857 17.6087C29.2857 11.7391 24.619 7.30435 20.1429 7.30435Z" fill="#FF6900"/>
  <path d="M0 17.6087C0 20.8696 2.52381 23.4783 5.71429 23.4783V18.7391C5.71429 18.087 5.19048 17.6087 4.57143 17.6087C3.95238 17.6087 3.42857 18.087 3.42857 18.7391C3.42857 19.3913 2.90476 19.8696 2.28571 19.8696C1.04762 19.8696 0 18.7391 0 17.6087Z" fill="#FF6900"/>
  <g fill="#1A2238">
    <path d="M41.4 22V12.4H43.3C44.3 12.4 45.1 12.7 45.7 13.2C46.3 13.7 46.6 14.4 46.6 15.3C46.6 16.2 46.3 16.9 45.7 17.4C45.1 17.9 44.3 18.2 43.3 18.2H42.8V22H41.4ZM42.8 16.9H43.3C43.8 16.9 44.2 16.8 44.5 16.5C44.8 16.2 44.9 15.8 44.9 15.3C44.9 14.8 44.8 14.4 44.5 14.1C44.2 13.8 43.8 13.7 43.3 13.7H42.8V16.9Z"/>
    <path d="M47.9 22V17.9C47.9 17.1 48.1 16.4 48.6 15.9C49.1 15.4 49.7 15.1 50.5 15.1C51.3 15.1 51.9 15.4 52.4 15.9C52.9 16.4 53.1 17.1 53.1 17.9V22H51.7V17.9C51.7 17.5 51.6 17.2 51.4 17C51.2 16.8 50.9 16.7 50.5 16.7C50.1 16.7 49.8 16.8 49.6 17C49.4 17.2 49.3 17.5 49.3 17.9V22H47.9Z"/>
    <path d="M55.7 24.5C55.3 24.5 55 24.4 54.7 24.3V22.9C54.9 23 55.1 23 55.3 23C55.7 23 56 22.8 56.1 22.5L56.2 22.3L53.9 15.2H55.4L56.9 20.2L58.4 15.2H59.9L57.5 22.7C57.3 23.3 57 23.7 56.7 24C56.4 24.3 56 24.5 55.7 24.5Z"/>
    <path d="M60.5 19.1C60.5 18.3 60.7 17.6 61.2 17.1C61.7 16.6 62.3 16.3 63.1 16.3C63.9 16.3 64.5 16.6 65 17.1C65.5 17.6 65.7 18.3 65.7 19.1C65.7 19.9 65.5 20.6 65 21.1C64.5 21.6 63.9 21.9 63.1 21.9C62.3 21.9 61.7 21.6 61.2 21.1C60.7 20.6 60.5 19.9 60.5 19.1ZM61.9 19.1C61.9 19.5 62 19.9 62.2 20.1C62.4 20.3 62.7 20.4 63.1 20.4C63.5 20.4 63.8 20.3 64 20.1C64.2 19.9 64.3 19.5 64.3 19.1C64.3 18.7 64.2 18.3 64 18.1C63.8 17.9 63.5 17.8 63.1 17.8C62.7 17.8 62.4 17.9 62.2 18.1C62 18.3 61.9 18.7 61.9 19.1Z"/>
    <path d="M66.9 22V15.2H68.3V16C68.6 15.4 69.1 15.1 69.8 15.1C70.6 15.1 71.2 15.4 71.7 15.9C72.2 16.4 72.4 17.1 72.4 17.9V22H71V17.9C71 17.5 70.9 17.2 70.7 17C70.5 16.8 70.2 16.7 69.8 16.7C69.4 16.7 69.1 16.8 68.9 17C68.7 17.2 68.6 17.5 68.6 17.9V22H66.9Z"/>
    <path d="M73.8 19.1C73.8 18.3 74 17.6 74.5 17.1C75 16.6 75.6 16.3 76.4 16.3C77.2 16.3 77.8 16.6 78.3 17.1C78.8 17.6 79 18.3 79 19.1V19.5H75.2C75.3 19.9 75.4 20.2 75.6 20.4C75.8 20.6 76.1 20.7 76.5 20.7C77.1 20.7 77.5 20.5 77.8 20.1L78.7 21C78.2 21.6 77.5 21.9 76.5 21.9C75.6 21.9 75 21.6 74.5 21.1C74 20.6 73.8 19.9 73.8 19.1ZM75.2 18.5H77.6C77.6 18.1 77.5 17.8 77.3 17.6C77.1 17.4 76.8 17.3 76.4 17.3C76 17.3 75.7 17.4 75.5 17.6C75.3 17.8 75.2 18.1 75.2 18.5Z"/>
    <path d="M80.2 19.1C80.2 18.3 80.4 17.6 80.9 17.1C81.4 16.6 82 16.3 82.8 16.3C83.6 16.3 84.2 16.6 84.7 17.1C85.2 17.6 85.4 18.3 85.4 19.1V19.5H81.6C81.7 19.9 81.8 20.2 82 20.4C82.2 20.6 82.5 20.7 82.9 20.7C83.5 20.7 83.9 20.5 84.2 20.1L85.1 21C84.6 21.6 83.9 21.9 82.9 21.9C82 21.9 81.4 21.6 80.9 21.1C80.4 20.6 80.2 19.9 80.2 19.1ZM81.6 18.5H84C84 18.1 83.9 17.8 83.7 17.6C83.5 17.4 83.2 17.3 82.8 17.3C82.4 17.3 82.1 17.4 81.9 17.6C81.7 17.8 81.6 18.1 81.6 18.5Z"/>
    <path d="M86.6 22V15.2H88V16.1C88.3 15.4 88.8 15.1 89.5 15.1V16.6C89.1 16.6 88.8 16.7 88.6 16.9C88.4 17.1 88.3 17.4 88.3 17.8V22H86.6Z"/>
  </g>
</svg>
